<svg width="300" height="235" viewBox="0 0 300 235" fill="none" xmlns="http://www.w3.org/2000/svg">
<path d="M103.634 18.0934C203.987 40.6895 216.616 -12.4779 249.18 2.80775C281.744 18.0934 280.974 34.4826 273.77 78.5712C273.77 78.5712 265.795 99.8381 294.372 132.403C322.948 164.968 235.005 207.486 203.323 156.993C177.469 115.788 81.038 190.223 26.5408 172.943C-27.9564 155.664 3.28045 -4.50277 103.634 18.0934Z" fill="#D9EBFF"/>
<ellipse cx="194.683" cy="226.443" rx="84.4031" ry="8.30739" fill="#C0C4C0"/>
<rect x="120.913" y="23.4101" width="146.21" height="205.359" rx="25" fill="#579E56"/>
<rect x="131.547" y="33.379" width="125.608" height="184.756" fill="white"/>
<path d="M131.547 33.379L186.043 105.155L257.155 218.135H131.547V33.379Z" fill="#E4E4E2" fill-opacity="0.5"/>
<path d="M131.547 33.379H257.155V218.135L196.677 130.409L131.547 33.379Z" fill="white"/>
<path d="M168.764 20.0871C168.764 18.6189 169.954 17.4288 171.422 17.4288H217.279C218.747 17.4288 219.938 18.6189 219.938 20.0871V37.3665C219.938 38.8347 218.747 40.0249 217.279 40.0249H171.422C169.954 40.0249 168.764 38.8347 168.764 37.3665V20.0871Z" fill="#F7B731"/>
<path d="M180.062 20.0871C180.062 13.8474 185.12 8.78906 191.36 8.78906H197.341C203.581 8.78906 208.64 13.8474 208.64 20.0871C208.64 26.3269 203.581 31.3852 197.341 31.3852H191.36C185.12 31.3852 180.062 26.3269 180.062 20.0871Z" fill="#F7B731"/>
<rect x="148.168" y="63.9564" width="25.9066" height="23.9128" stroke="#60B158" stroke-width="4"/>
<rect x="181.391" y="63.9502" width="60.4778" height="1.99377" rx="0.996887" fill="#E4E4E2"/>
<rect x="181.391" y="71.2607" width="60.4778" height="1.99377" rx="0.996887" fill="#E4E4E2"/>
<rect x="181.391" y="78.5712" width="60.4778" height="1.99377" rx="0.996887" fill="#E4E4E2"/>
<rect x="181.391" y="85.8817" width="46.5214" height="1.99377" rx="0.996887" fill="#E4E4E2"/>
<rect x="148.168" y="117.124" width="25.9066" height="23.9128" stroke="#60B158" stroke-width="4"/>
<rect x="181.391" y="117.117" width="60.4778" height="1.99377" rx="0.996887" fill="#E4E4E2"/>
<rect x="181.391" y="124.428" width="60.4778" height="1.99377" rx="0.996887" fill="#E4E4E2"/>
<rect x="181.391" y="131.739" width="60.4778" height="1.99377" rx="0.996887" fill="#E4E4E2"/>
<rect x="181.391" y="139.049" width="46.5214" height="1.99377" rx="0.996887" fill="#E4E4E2"/>
<rect x="148.168" y="170.291" width="25.9066" height="23.9128" stroke="#60B158" stroke-width="4"/>
<rect x="181.391" y="170.285" width="60.4778" height="1.99377" rx="0.996887" fill="#E4E4E2"/>
<rect x="181.391" y="177.595" width="60.4778" height="1.99377" rx="0.996887" fill="#E4E4E2"/>
<rect x="181.391" y="184.906" width="60.4778" height="1.99377" rx="0.996887" fill="#E4E4E2"/>
<rect x="181.391" y="192.216" width="46.5214" height="1.99377" rx="0.996887" fill="#E4E4E2"/>
<path d="M158.131 77.5743L153.478 71.2607L149.823 74.2513L158.131 84.8848L180.394 61.6241L158.131 77.5743Z" fill="#F7B731"/>
<path d="M57.9308 189.581L138.091 85.13L142.845 88.7605L63.06 193.224L57.9308 189.581Z" fill="#579E56"/>
<path d="M62.3623 192.593L142.587 88.2731L146.939 90.9539L67.3975 194.57C65.4386 194.863 64.017 194.17 62.3623 192.593Z" fill="#4D8945"/>
<path d="M59.0734 190.319L138.81 85.8194L135.077 82.3279L56.0932 186.37C56.3273 188.337 57.1165 189.139 59.0734 190.319Z" fill="#4D8945"/>
<path d="M149.752 75.5233L134.978 82.3762L138.812 85.6799L149.752 75.5233Z" fill="#FFD0BE"/>
<path d="M138.812 85.6799L142.355 88.3866L149.752 75.5233L138.812 85.6799Z" fill="#FFBC99"/>
<path d="M146.939 90.954L142.355 88.3866L149.453 75.6693L146.939 90.954Z" fill="#F5A37E"/>
<path d="M148.83 78.9332L149.752 75.5233L146.468 77.1287C147.05 78.5203 147.628 78.793 148.83 78.9332Z" fill="url(#paint0_linear)"/>
<defs>
<linearGradient id="paint0_linear" x1="148.11" y1="76.326" x2="147.039" y2="79.8089" gradientUnits="userSpaceOnUse">
<stop stop-color="#1A1212"/>
<stop offset="1" stop-color="#1A1212" stop-opacity="0"/>
</linearGradient>
</defs>
</svg>
